<?xml version="1.0" encoding="utf-8"?>
<!-- Generator: Adobe Illustrator 18.1.1, SVG Export Plug-In . SVG Version: 6.00 Build 0)  -->
<svg version="1.1" id="Layer_1" xmlns="http://www.w3.org/2000/svg" xmlns:xlink="http://www.w3.org/1999/xlink" x="0px" y="0px"
	 viewBox="71 71 505 340" enable-background="new 71 71 505 340" xml:space="preserve">
<path fill="#8c8569" d="M176.2,393.2c-5.5,0-10.3-2.8-13.1-7.6L82.6,253.5c-4.8-7.6-2.1-17.2,5.5-21.3c7.6-4.8,17.2-2.1,21.3,5.5
	l80.5,132.1c4.8,7.6,2.1,17.2-5.5,21.3C181.7,392.5,178.9,393.2,176.2,393.2z"/>
<path fill="#8c8569" d="M96.3,261.1c-2.8,0-5.5-0.7-8.3-2.1c-7.6-4.1-9.6-13.8-5.5-21.3l82.6-139c4.1-7.6,13.8-9.6,21.3-5.5
	c7.6,4.1,9.6,13.8,5.5,21.3l-81.9,139C106.7,258.3,101.8,261.1,96.3,261.1z"/>
<path fill="#8c8569" d="M471.4,391.2c-2.8,0-5.5-0.7-8.3-2.8c-7.6-4.8-9.6-14.5-4.8-21.3L541.6,237c4.8-7.6,14.5-9.6,21.3-4.8
	c7.6,4.8,9.6,14.5,4.8,21.3l-83.3,130.8C481.7,388.4,476.9,391.2,471.4,391.2z"/>
<path fill="#8c8569" d="M554.7,261.1c-5.5,0-10.3-2.8-13.8-7.6l-81.9-139c-4.1-7.6-2.1-17.2,5.5-21.3c7.6-4.1,17.2-2.1,21.3,5.5
	l81.9,139c4.1,7.6,2.1,17.2-5.5,21.3C560.2,260.4,557.4,261.1,554.7,261.1z"/>
<path fill="#8c8569" d="M278,300.3c0,0-4.1-3.4,39.9-57.8c48.2-59.9,94.3-123.2,103.9-118.4c9.6,4.8-45.4,91.5-78.5,139.7
	c-32.3,47.5-42.7,55.7-42.7,55.7s-0.7-4.1-10.3-12.4C281.5,301,278,300.3,278,300.3z"/>
<path fill="#8c8569" d="M263.6,322.3c0,0-23.4,8.9-21.3,24.8c1.4,8.9-2.8,22-7.6,23.4c-4.8,2.1,29.6,3.4,42.7-11.7
	c7.6-8.9,6.9-23.4,6.9-23.4S275.3,334.7,263.6,322.3z"/>
<path fill="#8c8569" d="M271.8,307.2c2.1-2.8,3.4-2.1,10.3,2.8c7.6,5.5,19.3,13.8,6.9,17.2c0,0-1.4,6.9-8.9,0.7
	c-6.2-4.1-13.8-9.6-11-13.1c2.8-3.4,4.1-1.4,6.9,0.7C276,315.5,267.7,312.7,271.8,307.2z"/>
</svg>
